<?xml version="1.0" encoding="utf-8"?>
<!-- Generator: Adobe Adobe Illustrator 24.2.0, SVG Export Plug-In . SVG Version: 6.00 Build 0)  -->
<svg version="1.1" id="Calque_1" xmlns="http://www.w3.org/2000/svg" xmlns:xlink="http://www.w3.org/1999/xlink" x="0px" y="0px"
	 width="640px" height="640px" viewBox="0 0 640 640" style="enable-background:new 0 0 640 640;" xml:space="preserve">
<style type="text/css">
	.st0{fill:#795238;}
</style>
<path class="st0" d="M80,259.8l209.2,86.1c9.8,4,20.2,6.1,30.8,6.1s21-2.1,30.8-6.1l242.4-99.8c9-3.7,14.8-12.4,14.8-22.1
	s-5.8-18.4-14.8-22.1l-242.4-99.8c-9.8-4-20.2-6.1-30.8-6.1s-21,2.1-30.8,6.1L46.8,201.9c-9,3.7-14.8,12.4-14.8,22.1v296
	c0,13.3,10.7,24,24,24s24-10.7,24-24V259.8z M128,331.5V448c0,53,86,96,192,96s192-43,192-96V331.4l-142.9,58.9
	c-15.6,6.4-32.2,9.7-49.1,9.7s-33.5-3.3-49.1-9.7L128,331.4V331.5z"/>
</svg>
