<?xml version="1.0" encoding="utf-8"?>
<!-- Generator: Adobe Adobe Illustrator 24.2.0, SVG Export Plug-In . SVG Version: 6.00 Build 0)  -->
<svg version="1.1" id="Calque_1" xmlns="http://www.w3.org/2000/svg" xmlns:xlink="http://www.w3.org/1999/xlink" x="0px" y="0px"
	 width="640px" height="640px" viewBox="0 0 640 640" style="enable-background:new 0 0 640 640;" xml:space="preserve">
<style type="text/css">
	.st0{fill:#795238;}
</style>
<path class="st0" d="M320,312c-66.3,0-120-53.7-120-120S253.7,72,320,72s120,53.7,120,120S386.3,312,320,312z M289.5,368h61
	c9.7,0,17.5,7.8,17.5,17.5c0,4.2-1.5,8.2-4.2,11.4l-27.4,32l31,115.1h0.6l34.6-138.5c2.2-8.7,11.1-14,19.5-10.8
	C484,418.3,528,478.3,528,548.5c0,15.1-12.3,27.4-27.4,27.4L139.4,576c-15.1,0-27.4-12.3-27.4-27.4c0-70.2,44-130.2,105.9-153.8
	c8.4-3.2,17.3,2.1,19.5,10.8L272,544.1h0.6l31-115.1l-27.4-32c-2.7-3.2-4.2-7.2-4.2-11.4c0-9.7,7.8-17.5,17.5-17.5V368z"/>
</svg>
